<?xml version="1.0" encoding="UTF-8" standalone="no"?>
<svg
   xmlns:dc="http://purl.org/dc/elements/1.1/"
   xmlns:cc="http://creativecommons.org/ns#"
   xmlns:rdf="http://www.w3.org/1999/02/22-rdf-syntax-ns#"
   xmlns:svg="http://www.w3.org/2000/svg"
   xmlns="http://www.w3.org/2000/svg"
   xmlns:xlink="http://www.w3.org/1999/xlink"
   width="251"
   height="251"
   viewBox="0 0 66.410416 66.410418"
   version="1.1"
   id="svg8">
  <defs
     id="defs2">
    <linearGradient
       id="linearGradient27">
      <stop
         style="stop-color:#05376a;stop-opacity:1"
         offset="0"
         id="stop23" />
      <stop
         style="stop-color:#35649a;stop-opacity:1"
         offset="1"
         id="stop25" />
    </linearGradient>
    <linearGradient
       xlink:href="#linearGradient27"
       id="linearGradient29"
       x1="-66.183624"
       y1="180.16718"
       x2="-66.183624"
       y2="126.98593"
       gradientUnits="userSpaceOnUse"
       gradientTransform="matrix(1,0,0,1.2487562,66.183624,-158.57446)" />
  </defs>
  <metadata
     id="metadata5">
    <rdf:RDF>
      <cc:Work
         rdf:about="">
        <dc:format>image/svg+xml</dc:format>
        <dc:type
           rdf:resource="http://purl.org/dc/dcmitype/StillImage" />
        <dc:title></dc:title>
      </cc:Work>
    </rdf:RDF>
  </metadata>
  <rect
     ry="12.240903"
     y="7.272949e-06"
     x="-2.6757812e-07"
     height="66.410416"
     width="66.410416"
     id="rect13"
     style="opacity:1;fill:url(#linearGradient29);fill-opacity:1;stroke:none;stroke-width:3.66306782;stroke-linecap:round;stroke-miterlimit:4;stroke-dasharray:none;stroke-opacity:1" />
  <path
     id="path4529"
     d="m 36.428921,6.0996585 c -1.559873,-0.086345 -2.695303,1.7656238 -3.524945,3.089394 -1.298818,2.0724125 -1.744612,4.6371695 -1.946243,7.0746235 -0.16058,1.941079 0.299221,3.888097 0.603176,5.811935 l 0.158696,1.005754 c -2.649216,2.041841 -5.314508,4.125357 -6.822498,6.768909 -3.397258,5.955494 -3.951471,12.720089 2.203178,17.581451 2.239601,1.768991 5.653451,2.396873 8.770113,1.91945 l 0.459597,2.910091 c 0.444421,2.812973 -2.43946,5.821236 -5.108457,6.437096 -1.676888,0.386952 -4.266394,-0.69185 -4.657107,-2.229282 0,0 2.354406,-1.084302 2.673078,-2.1915 0.384798,-1.336892 -0.15712,-3.203982 -1.327264,-3.956375 -1.116515,-0.717907 -2.981962,-0.481981 -3.960498,0.414942 -1.055562,0.967518 -1.269692,2.858358 -0.81683,4.216745 0.819034,2.456706 3.243002,4.601952 5.759036,5.214941 1.928757,0.469905 4.241896,-0.237826 5.758351,-1.518935 1.811156,-1.530079 3.362421,-3.249093 2.93757,-6.478314 l -0.406699,-3.089397 c 1.440599,-0.380728 2.764961,-1.013229 3.808674,-1.900213 3.064615,-2.604414 3.843634,-8.217489 2.16127,-11.870501 -1.297607,-2.817558 -4.939225,-4.74999 -8.040532,-4.684585 -0.117998,0.0026 -0.236238,0.01316 -0.354487,0.02268 l -0.618291,-4.6997 c 1.173446,-0.90068 2.330631,-1.814413 3.23435,-2.969859 1.433526,-1.832813 2.804293,-3.893404 3.252211,-6.176727 0.441124,-2.248703 0.265033,-4.748975 -0.667067,-6.8424175 -0.70908,-1.5925496 -1.787776,-3.7638153 -3.528382,-3.8601973 z m 1.463976,4.4626865 c 0.893986,0.0082 1.692985,1.196592 1.679691,2.090512 -0.05596,3.776097 -2.804159,6.442775 -6.001545,8.987202 l -0.08725,-0.660884 c -0.24525,-1.864082 -0.293753,-3.88263 0.410819,-5.625761 0.779523,-1.928558 1.918238,-4.810345 3.998282,-4.791069 z m -5.502789,16.761182 0.587375,3.718679 c -1.963105,0.706626 -3.754537,2.235449 -4.736796,3.983854 -1.311407,2.334291 -1.498766,5.69931 -0.181366,8.030227 0.847165,1.498919 2.751142,2.788973 4.483984,2.563161 -3.224475,-1.770239 -4.030558,-7.101802 -1.902962,-9.556032 0.678842,-0.783056 1.741559,-1.226774 2.912151,-1.382226 l 2.053412,12.996478 c -2.829937,0.385753 -6.255889,-0.851542 -8.113351,-2.807727 -2.241805,-2.360963 -1.898822,-6.549618 -1.097123,-9.705108 0.638567,-2.513404 2.735246,-4.438221 4.457878,-6.376644 0.470271,-0.529181 0.991638,-1.00853 1.536798,-1.464662 z m 2.893601,7.332934 c 1.636663,0.160036 3.237985,0.815561 4.138428,1.883726 2.187312,2.594736 1.534985,8.071215 -1.176127,10.112492 -0.390682,0.294153 -0.826512,0.52317 -1.292916,0.695234 z"
     style="fill:#ffffff;stroke-width:0.3517389" />
</svg>
