<?xml version="1.0" encoding="UTF-8" standalone="no"?>
<svg
   xmlns:dc="http://purl.org/dc/elements/1.1/"
   xmlns:cc="http://creativecommons.org/ns#"
   xmlns:rdf="http://www.w3.org/1999/02/22-rdf-syntax-ns#"
   xmlns:svg="http://www.w3.org/2000/svg"
   xmlns="http://www.w3.org/2000/svg"
   xmlns:sodipodi="http://sodipodi.sourceforge.net/DTD/sodipodi-0.dtd"
   xmlns:inkscape="http://www.inkscape.org/namespaces/inkscape"
   width="384pt"
   height="384pt"
   viewBox="0 0 384 384"
   id="svg3393"
   version="1.1"
   style="fill-rule:evenodd"
   inkscape:version="0.92.2 2405546, 2018-03-11"
   sodipodi:docname="favicon.svg"
   inkscape:export-filename="/home/richi/Bilder/mvl_vektor renew.png"
   inkscape:export-xdpi="24"
   inkscape:export-ydpi="24">
  <sodipodi:namedview
     pagecolor="#ffffff"
     bordercolor="#666666"
     borderopacity="1"
     objecttolerance="10"
     gridtolerance="10"
     guidetolerance="10"
     inkscape:pageopacity="0"
     inkscape:pageshadow="2"
     inkscape:window-width="1920"
     inkscape:window-height="1016"
     id="namedview22"
     showgrid="false"
     inkscape:zoom="0.7466058"
     inkscape:cx="-2.2947066"
     inkscape:cy="209.04392"
     inkscape:window-x="0"
     inkscape:window-y="27"
     inkscape:window-maximized="1"
     inkscape:current-layer="svg3393"
     fit-margin-top="0"
     fit-margin-left="0"
     fit-margin-right="0"
     fit-margin-bottom="0" />
  <metadata
     id="metadata3433">
    <rdf:RDF>
      <cc:Work
         rdf:about="">
        <dc:format>image/svg+xml</dc:format>
        <dc:type
           rdf:resource="http://purl.org/dc/dcmitype/StillImage" />
        <dc:title></dc:title>
      </cc:Work>
    </rdf:RDF>
  </metadata>
  <defs
     id="defs3431" />
  <rect
     style="fill:#134474;fill-opacity:1;stroke:none;stroke-width:1.14606011"
     id="rect56"
     width="384"
     height="384"
     x="0"
     y="0"
     ry="57.648396" />
  <path
     style="fill:#ffffff;stroke:none;stroke-width:1.60999417"
     d="m 368.25179,66.459388 c -1.04327,0.115917 -1.9711,0.115562 -2.89844,0.115562 C 246.33193,77.974465 129.33031,87.418981 14.358915,97.328349 v 6.740271 c 7.384523,-0.67348 14.751019,-1.37959 22.01321,-2.13905 C 146.9594,92.308211 258.01049,81.643658 368.8296,72.949684 c -0.23179,-2.202606 -0.46188,-4.403737 -0.57781,-6.490289 z M 134.67453,101.08054 c -2.27908,-0.0161 -6.17465,2.19104 -7.76854,2.58951 -7.07109,1.50695 -15.18466,0.23113 -22.37167,0.23113 -3.01392,1.1592 -3.13144,2.08729 -4.0588,5.1012 -0.23184,5.21637 -0.809334,9.73723 -2.200384,14.48993 0,0.5796 -4.86991,9.85336 -5.68136,9.85336 -0.46367,0.92736 -0.92577,-0.69701 -1.27353,-1.04477 -3.24574,-3.24575 -5.79692,-13.09645 -5.79692,-16.80588 -1.27512,-8.57805 -0.69612,-16.461188 -11.244795,-11.24481 -0.92736,0 -2.782401,1.0417 -3.709761,1.27354 -11.128276,4.86862 -24.459306,6.4928 -36.514939,5.68136 -0.115918,0.11592 -0.115272,0.11448 -0.231128,1.96925 4.173105,0.46368 9.040953,0.23145 13.214058,0.1156 9.157646,6.02782 0.346576,23.53322 -2.667333,31.53167 -9.983959,0.45383 -19.996874,0.87071 -30.010513,1.29004 v 6.71434 c 8.890063,-0.38493 17.785369,-0.76729 26.649811,-1.16507 0,1.27512 -2.665908,5.44631 -3.129586,6.72142 -7.418853,14.72179 -9.272683,18.66363 -10.20004,20.40244 -0.695518,2.78205 -3.710875,8.23268 -4.870071,10.66697 -1.391036,0 -2.898521,-3.8e-4 -4.405476,0.11567 v -0.11567 c -1.340005,0 -2.696808,-0.004 -4.044638,-0.005 v 6.5469 c 143.232995,0.61704 151.358725,0.6523 181.751665,0.87496 3.01391,8.2303 6.60685,16.34505 8.57748,25.03901 1.15918,6.37558 3.01399,14.25998 3.01399,20.75148 h -1.04475 v -0.11819 C 62.377702,235.29833 26.862036,233.5128 14.358915,232.8532 v 6.58462 c 64.572331,3.86107 129.471505,6.50655 193.920955,9.71185 v 4.86773 c 0.5796,0 1.27609,-2.5e-4 1.97161,0.11553 0,-1.62287 2.3e-4,-3.24486 -0.11554,-4.86772 68.39253,3.36167 68.39305,3.36234 71.52287,3.59418 -0.69551,15.64914 -3.82578,31.75991 -6.72377,47.17721 0,0.57961 0.11528,1.62259 -0.58016,1.62259 v -0.11566 C 187.67748,295.18352 98.501686,282.9271 14.358915,275.41506 v 7.48081 c 88.804915,8.63887 177.486615,16.73273 259.302585,25.14043 0.34775,0.34777 -0.69808,7.99736 -0.69808,9.50431 0.81144,-0.11592 0.81243,-0.11567 1.97162,-0.11567 -1.04327,-2.08655 0.34832,-6.83922 0.58015,-9.15761 8.11439,0 16.80674,2.3183 24.92111,2.3183 22.25657,2.20248 45.20954,4.98533 67.58202,6.6082 0.23183,-3.0139 0.23203,-3.0127 0.69572,-6.49027 -11.82379,-1.27512 -23.99542,-2.55163 -35.81922,-3.36306 v -0.23113 c 4.98455,0 8.57882,-6.3774 10.43353,-10.08683 1.85471,-13.33075 9.85082,-27.00843 5.32993,-40.68694 0.92737,-0.92736 18.3179,0.81327 20.52037,0.92919 0,-0.69551 0.46161,-6.6082 -0.11782,-6.6082 -20.98144,-1.1592 -42.19275,-1.97004 -63.17418,-3.24514 1.04328,-6.02783 1.50742,-12.63685 2.89846,-18.54875 0,-13.44668 -23.64944,-2.666 -29.9091,-0.81128 -7.99845,1.7388 -14.25688,1.85277 -22.48724,1.3891 -0.11591,0.69552 -0.23113,1.27881 -0.23113,1.8584 6.60741,1.04329 13.44399,0 19.93548,0 4.40495,2.898 4.63951,10.08357 5.21912,14.9522 -1.15921,0 -8.81057,-0.46187 -12.75183,-0.57782 -11.2442,-0.57959 -56.91617,-0.81187 -54.25003,-2.89845 2.66616,-2.08654 6.14264,-3.59547 9.5043,-3.94323 0.11592,-0.46368 0.11567,-0.81022 0.11567,-1.15797 1.97062,-6.95518 5.1013,-12.63611 8.1152,-18.77986 4.05719,-8.11436 11.70691,-15.30202 17.85064,-21.90943 39.99226,0.23183 79.86856,0.46425 119.7449,0.58017 v -6.49029 c -37.67388,-0.23184 -75.57834,-0.46462 -113.25224,-0.46462 0,-2.78205 6.37472,-6.26026 6.37472,-11.2448 -1.27511,-6.37558 -8.22843,-9.61975 -13.56073,-11.93817 -2.20247,0 -4.86998,-2.3183 -7.18837,-2.3183 -6.4915,-2.08654 -19.70764,-4.4055 -25.50362,-0.58016 0,0.23185 0.81328,1.73849 0.9292,1.62257 4.63678,-3.12982 11.70572,-1.27484 15.18332,2.20275 5.44821,5.44821 -7.18543,14.95214 -10.43118,18.77749 -0.34775,0.69552 -2.32064,4.17388 -2.32064,1.27589 -2.08656,-4.28902 -3.82265,-10.89608 -6.95253,-14.60549 -2.898,-3.4776 -5.21915,-9.7378 -10.55144,-9.7378 -6.95518,1.97063 -14.2558,4.40717 -21.32692,6.14596 -4.86858,0.81143 -10.08556,1.50701 -15.07011,1.50701 v 2.08483 c 5.68006,-0.69552 9.85294,-1.62298 13.79422,2.31828 4.28902,4.28902 9.27293,8.69269 12.40277,14.1409 -36.51467,-0.23183 -36.51424,-0.22969 -167.155589,-0.69335 0,-1.62289 1.740701,-4.28997 2.436219,-5.79694 4.636795,-2.55023 8.461198,-4.17198 14.025337,-4.17198 7.534774,1.50695 17.737205,7.53416 20.867032,-2.08718 0,-8.9258 0.347156,-18.43059 3.245143,-26.89273 1.275119,-0.11591 1.272522,-0.11781 3.127221,-0.11781 2.086562,4.28902 4.753701,8.46384 7.303927,12.40511 1.506972,2.31839 13.215566,18.89542 14.258836,18.89542 1.27512,-1.50695 2.66576,-3.47904 3.94087,-4.87007 5.10046,-5.79598 11.012014,-13.79322 14.605514,-20.98024 2.08654,-2.08655 2.20449,-7.53505 5.45024,-7.53505 0.69551,9.5054 0.34757,21.55946 4.63659,30.25342 5.79598,11.59196 24.69021,-5.09902 30.71803,-9.61988 1.04327,-1.39103 9.62222,-8.58007 9.62222,-10.78254 -0.69552,-0.46367 -1.27645,-1.04149 -1.85605,-0.57782 -2.08655,2.78208 -4.52221,5.33153 -7.18835,7.88175 -0.81146,-0.46368 -1.62079,-1.04297 -2.20039,-1.62257 -2.78207,-2.08655 -8.11522,-12.98327 -8.11522,-16.69269 1.73879,-0.11592 1.73804,-0.11554 4.05642,-0.11554 74.18854,-3.36167 148.49533,-6.49167 222.68387,-9.85334 h 2.8961 c -0.11591,-0.46368 -0.11528,-0.46484 -0.23112,-6.49266 -19.70633,0.69551 -39.87839,2.43622 -59.58471,2.43622 -57.26427,2.55022 -114.64348,5.09838 -171.90773,7.53269 -2.20248,-6.83925 -10.66266,-34.89012 -1.3891,-37.90403 0,-1.30409 -0.70219,-1.77115 -1.73814,-1.77824 z M 305.0729,254.0174 c 13.67851,0.5796 27.82207,0.92798 41.50058,2.08717 3.24574,9.73725 1.8547,17.15459 -5.33231,22.6028 -2.55023,1.85472 -7.07221,2.89846 -10.31796,2.89846 -8.11436,-0.5796 -16.34413,-1.73813 -24.57442,-1.73813 -2.31839,0.23183 -2.31994,0.23076 -2.55179,0.34669 0,-8.69398 0.23263,-17.50303 1.2759,-26.19699 z m -14.13855,47.52626 c 5.9119,0.46369 11.59007,2.08739 17.38605,2.7829 0,0 4.05617,0.81128 1.8537,0.81128 v -0.11554 c -9.38949,-0.92736 -19.12617,-1.5058 -28.39973,-2.66501 v -0.23111 c 2.78206,0 6.14608,-0.58252 9.15998,-0.58252 z"
     id="path3399"
     inkscape:connector-curvature="0" />
</svg>
