<?xml version="1.0" encoding="UTF-8" standalone="no"?>
<svg
   xmlns:dc="http://purl.org/dc/elements/1.1/"
   xmlns:cc="http://creativecommons.org/ns#"
   xmlns:rdf="http://www.w3.org/1999/02/22-rdf-syntax-ns#"
   xmlns:svg="http://www.w3.org/2000/svg"
   xmlns="http://www.w3.org/2000/svg"
   xmlns:sodipodi="http://sodipodi.sourceforge.net/DTD/sodipodi-0.dtd"
   xmlns:inkscape="http://www.inkscape.org/namespaces/inkscape"
   width="512"
   height="512"
   viewBox="0 0 383.99999 383.99999"
   id="svg3393"
   version="1.1"
   style="fill-rule:evenodd"
   inkscape:version="0.92.2 2405546, 2018-03-11"
   sodipodi:docname="large-icon.svg"
   inkscape:export-filename="/home/richard/Bilder/mvl_vektor renew.png"
   inkscape:export-xdpi="54.782795"
   inkscape:export-ydpi="54.782795">
  <sodipodi:namedview
     pagecolor="#134474"
     bordercolor="#666666"
     borderopacity="1"
     objecttolerance="10"
     gridtolerance="10"
     guidetolerance="10"
     inkscape:pageopacity="1"
     inkscape:pageshadow="2"
     inkscape:window-width="1920"
     inkscape:window-height="1016"
     id="namedview22"
     showgrid="false"
     inkscape:zoom="0.7466058"
     inkscape:cx="717.57642"
     inkscape:cy="145.0825"
     inkscape:window-x="0"
     inkscape:window-y="27"
     inkscape:window-maximized="1"
     inkscape:current-layer="svg3393"
     units="px" />
  <metadata
     id="metadata3433">
    <rdf:RDF>
      <cc:Work
         rdf:about="">
        <dc:format>image/svg+xml</dc:format>
        <dc:type
           rdf:resource="http://purl.org/dc/dcmitype/StillImage" />
        <dc:title></dc:title>
      </cc:Work>
    </rdf:RDF>
  </metadata>
  <defs
     id="defs3431" />
  <path
     style="fill:#ffffff;stroke:none"
     d="m 359.36407,114.02423 c -0.648,0.072 -1.224,0.0719 -1.8,0.0719 -81.03582,7.76137 -160.60193,14.05539 -238.6078,20.87969 -0.504,-1.44 -2.7308,-5.75156 -4.96876,-7.92031 -5.00922,-4.85432 -11.09298,-10.42603 -18.067182,-10.55781 -6.627731,-0.12523 -12.93248,4.60986 -17.5375,9.37812 -3.424524,3.54592 -6.515624,9.31656 -6.515624,13.27656 -15.84,1.224 -31.750626,2.73513 -47.590626,4.10313 0,1.224 -0.144625,3.02469 0.359375,4.10469 4.536,-0.648 9.504625,-1.00744 14.040625,-1.22344 10.8,-1.008 21.74375,-1.87325 32.54375,-2.88125 0,5.976 1.943302,12.168 3.095313,18 -1.152001,0 -4.75175,2.01656 -5.54375,2.37656 -2.16,1.08 -5.256687,2.59238 -7.704687,3.38438 -12.384,0.504 -24.911438,0.86425 -37.223439,1.65625 0.072,1.368 0.14375,2.73525 0.14375,4.03125 4.392,-0.216 27.576563,-1.36782 27.576563,-1.00782 -5.143617,2.18397 -21.787048,14.00733 -22.176563,18.35938 -1.008,-0.072 -1.007625,-0.0719 -5.615625,-0.0719 v 4.03281 h 3.74375 c -2.232,6.264 -0.863375,12.81613 3.240625,17.92813 -2.232,-0.144 -4.464875,-0.21707 -6.696875,-0.28907 -0.072,1.296 -0.14375,2.73682 -0.14375,4.03282 2.16,0.072 10.728313,-0.36057 11.520313,1.22344 0.288,0.288 3.024625,2.30468 3.240625,2.30468 2.232,2.232 7.488,4.67938 10.8,5.75938 17.872806,6.11363 30.808603,6.11326 46.8,6.04844 1.138486,3.08091 2.159375,6.2635 2.159375,9.2875 -13.464,-1.512 -27.287562,-2.37537 -40.751562,-3.95937 -0.432,-0.43201 -1.585063,-0.71945 -2.089063,-1.22344 -5.04,-2.52 -11.879688,-2.23313 -17.279687,-1.15313 -0.432,0 -0.863437,0.14498 -1.223437,0.36094 -3.960001,0 -8.352376,-0.93712 -12.384376,-1.15313 -0.144,1.368 -0.287375,2.73681 -0.359375,4.0328 0.504,0.072 1.007062,0.0719 1.439062,0.0719 5.832,0.648 5.256001,-0.43244 3.6,2.95156 -0.864,7.128 6.552313,12.31294 11.520313,14.76094 14.801068,6.8427 35.423386,6.45767 48.815625,0.64688 5.375015,-1.94533 10.247754,-6.91793 12.528127,-10.87188 67.3924,6.80407 136.07468,12.89611 198.36093,19.29688 0.216,0.216 -0.43281,4.96712 -0.43281,5.90312 0.504,-0.072 0.50344,-0.0718 1.22344,-0.0718 -0.648,-1.296 0.21693,-4.2475 0.36093,-5.6875 5.04,0 10.43969,1.43906 15.47969,1.43906 13.824,1.368 28.08057,3.09669 41.97657,4.10469 0.144,-1.872 0.14325,-1.87125 0.43125,-4.03125 -7.344,-0.792 -14.90444,-1.58505 -22.24844,-2.08905 v -0.14376 c 3.096,0 5.32925,-3.96005 6.48124,-6.26405 1.152,-8.28 6.11895,-16.77588 3.31095,-25.27188 0.576,-0.576 11.37731,0.50456 12.74531,0.57656 0,-0.432 0.28656,-4.10468 -0.0734,-4.10468 -13.032,-0.72 -26.20706,-1.22363 -39.23906,-2.01563 0.648,-3.744 0.936,-7.84832 1.8,-11.52032 0,-8.352 -14.68856,-1.65669 -18.57656,-0.50468 -4.968,1.08 -8.85516,1.15206 -13.9672,0.86406 -0.072,0.432 -0.14374,0.79313 -0.14374,1.15313 4.104,0.648 8.35081,0 12.38281,0 2.736,1.8 2.88062,6.26349 3.24062,9.28749 -0.72,0 -5.47231,-0.28736 -7.92031,-0.35937 -6.984,-0.36 -35.35131,-0.50399 -33.69531,-1.8 1.656,-1.296 3.81513,-2.23243 5.90313,-2.44843 0.072,-0.288 0.0718,-0.50432 0.0718,-0.72032 1.224,-4.32 3.16862,-7.84807 5.04062,-11.66407 2.52,-5.04 7.2715,-9.50381 11.0875,-13.60781 24.84,0.144 49.60856,0.28737 74.37656,0.35937 v -4.03124 c -23.4,-0.144 -46.94373,-0.2875 -70.34375,-0.2875 0,-1.728 3.95938,-3.88838 3.95938,-6.98438 -0.792,-3.96 -5.11143,-5.97562 -8.42343,-7.41562 -1.368,0 -3.02407,-1.44063 -4.46407,-1.44063 -4.032,-1.296 -12.24062,-2.73537 -15.84062,-0.35937 0,0.144 0.50456,1.07981 0.57656,1.00781 2.88,-1.944 7.27125,-0.79281 9.43125,1.36719 3.384,3.384 -4.46369,9.28806 -6.47969,11.66406 -0.216,0.432 -1.44063,2.59219 -1.44063,0.79219 -1.296,-2.664 -2.37471,-6.76788 -4.31875,-9.07188 -1.8,-2.16 -3.24112,-6.04844 -6.55312,-6.04844 -4.32,1.224 -8.85486,2.73719 -13.24688,3.81719 -3.02398,0.504 -6.26493,0.93594 -9.36093,0.93594 v 1.29531 c 3.528,-0.432 6.12075,-1.00737 8.56875,1.44063 2.664,2.664 5.75913,5.39881 7.70313,8.78281 -22.68,-0.144 -22.67944,-0.14325 -103.82344,-0.43125 0,-1.008 1.08049,-2.664 1.51249,-3.6 2.88001,-1.584 5.25495,-2.59219 8.71095,-2.59219 4.68,0.936 11.01693,4.68069 12.96093,-1.29531 0,-5.544 0.21563,-11.44869 2.01563,-16.70469 0.792,-0.072 0.79175,-0.0719 1.94375,-0.0719 1.296,2.664 2.95193,5.25669 4.53593,7.70469 0.936,1.44 8.20825,11.73594 8.85625,11.73594 0.792,-0.936 1.65644,-2.161 2.44844,-3.025 3.168,-3.6 6.83987,-8.56725 9.07187,-13.03125 1.296,-1.296 1.36838,-4.67969 3.38438,-4.67969 0.432,5.904 0.21569,13.39062 2.87969,18.79062 3.6,7.2 15.33569,-3.167 19.07969,-5.975 0.648,-0.864 5.97656,-5.32887 5.97656,-6.69687 -0.432,-0.288 -0.79312,-0.64738 -1.15312,-0.35938 -1.296,1.728 -2.80807,3.31132 -4.46407,4.89532 -0.504,-0.288 -1.00719,-0.64782 -1.36719,-1.00782 -1.728,-1.296 -5.04062,-8.06318 -5.04062,-10.36718 1.08,-0.072 1.08031,-0.0719 2.52031,-0.0719 46.08,-2.088 92.2325,-4.03232 138.3125,-6.12032 h 1.8 c -0.072,-0.288 -0.0718,-0.28881 -0.14375,-4.03281 -12.24,0.432 -24.76938,1.5125 -37.00938,1.5125 -35.568,1.584 -71.207,3.16769 -106.775,4.67969 -1.368,-4.248 -6.62406,-21.67175 -0.86406,-23.54375 0,-2.592 -4.46468,0.14469 -5.90468,0.50469 -4.39201,0.936 -9.43132,0.14375 -13.89532,0.14375 -1.872,0.72 -1.94431,1.29518 -2.52031,3.16718 -0.144,3.24 -0.50319,6.048 -1.36719,9 0,0.36 -3.02412,6.12032 -3.52812,6.12032 -0.288,0.576 -0.57619,-0.43244 -0.79219,-0.64844 -2.016,-2.016 -3.6,-8.13506 -3.6,-10.43906 -0.792,-5.328 -0.43237,-10.22438 -6.98437,-6.98438 -0.576,0 -1.72869,0.64819 -2.30469,0.79219 -6.912,3.024 -15.19169,4.03212 -22.67969,3.52812 -0.072,0.072 -0.0718,0.0714 -0.14375,1.22344 2.592,0.288 5.61581,0.14388 8.20781,0.0719 5.688,3.744 0.21576,14.61638 -1.65624,19.58438 -20.592,0.936 -41.32675,1.65581 -61.918754,2.80781 l -0.07344,-0.0719 c 0.576,-0.288 1.744333,-0.93266 2.592188,-1.44063 2.204326,-1.32068 4.632466,-2.39026 6.481256,-4.175 6.0784,-5.86788 13.08539,-11.71931 14.47187,-20.80781 11.088,-0.792 22.46368,-1.80112 33.47968,-2.95312 68.688,-5.97602 137.66332,-12.60002 206.49532,-18.00002 -0.14397,-1.36808 -0.28735,-2.73533 -0.35935,-4.03133 z m -254.71093,13.58594 c 1.45774,-0.0465 2.8864,0.14402 4.22344,0.67031 2.82853,1.11337 5.68749,4.53612 5.68749,7.12812 -1.296,0 -2.66493,0.2155 -3.96093,0.2875 -7.63198,0.72 -16.01499,0.94669 -23.575,1.95469 1.339396,-2.61873 4.880461,-5.78748 8.203126,-7.34687 2.861674,-1.34304 6.214864,-2.59138 9.421874,-2.69375 z m 8.64531,11.97812 c 0.21262,0.0101 0.36557,0.0312 0.40157,0.0672 -1.008,1.872 -4.19111,4.64588 -6.69688,6.48125 -4.64346,3.40116 -10.029234,5.6603 -15.190624,8.20782 -3.20783,1.58328 -6.192188,2.95218 -9.792188,4.39218 0,-3.312 -0.57575,-6.697 -0.14375,-10.225 0,-1.44 0.575688,-3.16806 1.079688,-4.46406 0.36,-0.576 0.647687,-1.29588 1.079687,-1.87188 9.072,-0.72 18.215527,-1.655 27.287497,-2.375 0.162,-0.162 1.33713,-0.24287 1.975,-0.21249 z m 42.80937,27.35625 c 0,0.792 -1.65575,3.383 -1.94375,4.175 -4.608,9.144 -5.75993,11.59188 -6.33593,12.67188 -0.432,1.728 -2.305,5.113 -3.025,6.625 -0.864,0 -1.79994,-1.3e-4 -2.73594,0.0719 v -0.0719 c -4.824,0 -9.71962,1.2e-4 -14.61562,-0.0719 -0.432,-0.432 -1.94432,-1.29663 -2.52032,-1.44063 -10.07999,-5.472 -24.11943,-6.98394 -35.423432,-6.33594 -0.792,0 -1.943937,0.14363 -2.735937,0.21563 -0.792,-3.384 -2.735938,-8.06288 -2.735938,-11.44688 1.656,-0.792 2.663938,-1.44062 4.535938,-1.44062 22.463999,-1.008 45.071929,-1.94356 67.535929,-2.95157 z m -78.048429,7.27188 c 1.159822,2.92072 2.409233,6.49324 3.168749,9.43125 -6.636961,0.81879 -12.453743,3.11319 -18.432812,6.04843 -1.296,0.576 -4.103,0.36082 -5.975,0.43282 v -0.0734 c -0.288,0 -6.768875,0.50475 -4.896875,-0.43125 7.833715,-6.70402 17.374873,-11.02352 26.135938,-15.40781 z m -26.01875,19.84531 c 2.187,0.009 4.446455,0.18731 4.275,0.24219 -5.764566,3.31172 -7.073186,13.7988 -3.6,18.14375 0.32593,0.38443 0.79225,0.36043 -0.14375,0.64843 -2.88,-0.072 -6.048125,-0.28725 -8.928125,-0.43125 -2.81828,-7.66346 -2.020006,-12.13028 3.528125,-18.57656 0.396,0 2.681749,-0.0356 4.86875,-0.0266 z m 22.923437,0.17032 c 3.24,0 6.480188,-1.3e-4 9.792188,0.0718 1.584,4.464 2.736312,9.2158 4.320312,13.60781 0.432,2.23199 1.51125,4.89612 2.23125,7.12812 h -0.359375 v -0.0718 c -10.224,-0.36 -20.808813,-1.5125 -31.032812,-1.5125 -1.872001,-3.744 -2.231375,-6.62319 -0.359375,-10.36719 2.952,-4.968 9.791812,-7.84824 15.407812,-8.85624 z m 15.048438,0.0718 c 5.4,0 10.800004,-1.3e-4 16.199994,0.0718 4.896,1.296 8.92744,3.74481 12.02344,7.63281 2.736,3.456 3.168,11.232 0,14.4 v -0.0718 c -7.272,-0.36 -14.6155,-0.72125 -21.887497,-1.08125 -1.152,-5.4 -3.744625,-10.79856 -5.040625,-16.12656 -0.144,-0.144 -1.295312,-4.393 -1.295312,-4.825 z m 42.479684,0.14375 c 100.296,0.432 100.29556,0.43256 119.95156,0.57656 1.872,5.112 4.10413,10.15156 5.32813,15.55156 0.72,3.96 1.87187,8.85706 1.87187,12.88906 h -0.64843 v -0.0734 c -124.776,-6.264 -124.775,-6.26381 -126.575,-6.40781 5.30294,-6.62219 5.53661,-16.64024 0.0718,-22.39219 z m -79.581247,22.39222 c 6.81962,-0.57893 12.082367,4.06415 18.165625,4.17656 1.656,0.432 3.81575,0.57644 5.54375,0.64844 0.576,0.144 2.447813,0.21482 1.007812,-0.21718 -3.96,-0.504 -8.064187,-1.65482 -11.592187,-3.38282 -1.944,-0.936 11.519563,0.35938 11.951563,0.35938 2.448,0.072 7.200437,0.35925 9.648437,0.43125 4.752,0.288 4.752625,0.28893 5.040625,0.36093 0,2.376 1.94406,6.19251 2.664063,8.71251 -17.080812,-0.0454 -35.834687,-0.15333 -48.16875,-11.01716 1.323,0 3.446593,-0.10099 5.739062,-0.0718 z m 45.723438,2.55625 c 0.468,0.018 0.953,0.10769 1.025,0.17969 5.039999,0 10.296059,0.72031 15.264059,0.72031 -4.032,3.456 -9.50338,6.04865 -14.75937,6.84062 0,-0.504 -2.016442,-7.05705 -2.448439,-7.48905 0,-0.216 0.45075,-0.26957 0.91875,-0.25157 z m 30.804679,1.49375 c 2.60213,-0.0405 7.62488,0.48594 8.59688,0.48594 40.608,2.448 81.43119,4.10431 121.96719,6.12031 v 3.02344 c 0.36,0 0.793,-1.3e-4 1.225,0.0718 0,-1.008 1.2e-4,-2.01543 -0.0718,-3.02343 42.48,2.088 42.47944,2.08881 44.42344,2.23281 -0.432,9.72 -2.37657,19.72712 -4.17657,29.30312 0,0.36 0.0726,1.00782 -0.35938,1.00782 v -0.0718 c -63.86991,-4.68658 -129.94845,-14.5512 -190.36718,-18.50313 -2.376,-0.216 -4.752,-0.43231 -7.2,-0.72031 0,-3.168 -1.08081,-7.05581 -2.23281,-10.00781 0,-0.72 6.98368,-1.51175 8.27968,-1.94375 6.57667,-1.33042 13.18991,-4.26558 18.36094,-7.70469 0.09,-0.18 0.68732,-0.25681 1.55468,-0.27031 z m 190.68438,9.62969 c 8.496,0.36 17.28057,0.57687 25.77657,1.29687 2.016,6.048 1.15149,10.65507 -3.31251,14.03907 -1.584,1.152 -4.39181,1.8 -6.40781,1.8 -5.04,-0.36 -10.15206,-1.07969 -15.26406,-1.07969 -1.44,0.144 -1.44038,0.14362 -1.58438,0.21562 0,-5.4 0.14419,-10.87187 0.79219,-16.27187 z M 60.995328,240.74454 c 12.024,1.152 24.265063,2.08813 36.289063,3.52813 -6.089225,10.32386 -20.498367,12.38214 -30.74375,13.175 v -0.0719 c -4.464,0 -14.185,-0.50374 -17.425,-3.74374 -0.792001,-0.504 -3.887501,-2.37588 -3.887501,-3.67188 3.312001,-0.216 7.271313,-0.50363 10.295313,-2.01563 2.52,-1.224 4.463875,-2.66506 5.471875,-5.68906 z m 250.345312,19.29531 c 3.672,0.288 7.2,1.29613 10.8,1.72813 0,0 2.51956,0.50469 1.15156,0.50469 v -0.0719 c -5.832,-0.576 -11.88062,-0.93625 -17.64062,-1.65625 v -0.14375 c 1.728,0 3.81706,-0.36094 5.68906,-0.36094 z"
     id="path3399"
     inkscape:connector-curvature="0"
     sodipodi:nodetypes="cccssscccccccccccccccccccccccccccccccccccccccccccccccccccccccsccccccccccccscccccccscccccccccccccccccccccccccccccccscccccccccssccccsscccssscsscccccscccccccccccccccccccccccccccccccccccccccccccccscccccccsccccccccccsccccsscccccccccccccccccccccccccccccccccccccccccc" />
</svg>
