<?xml version="1.0" encoding="UTF-8" standalone="no"?>
<svg
   xmlns:dc="http://purl.org/dc/elements/1.1/"
   xmlns:cc="http://creativecommons.org/ns#"
   xmlns:rdf="http://www.w3.org/1999/02/22-rdf-syntax-ns#"
   xmlns:svg="http://www.w3.org/2000/svg"
   xmlns="http://www.w3.org/2000/svg"
   xmlns:sodipodi="http://sodipodi.sourceforge.net/DTD/sodipodi-0.dtd"
   xmlns:inkscape="http://www.inkscape.org/namespaces/inkscape"
   id="svg8"
   version="1.1"
   viewBox="0 0 14.862121 13.435153"
   height="50.77853"
   width="56.171799"
   sodipodi:docname="mvl-footer.svg"
   inkscape:version="0.92.4 5da689c313, 2019-01-14">
  <sodipodi:namedview
     pagecolor="#ffffff"
     bordercolor="#666666"
     borderopacity="1"
     objecttolerance="10"
     gridtolerance="10"
     guidetolerance="10"
     inkscape:pageopacity="0"
     inkscape:pageshadow="2"
     inkscape:window-width="1197"
     inkscape:window-height="935"
     id="namedview1739"
     showgrid="false"
     fit-margin-top="0"
     fit-margin-left="0"
     fit-margin-right="0"
     fit-margin-bottom="0"
     inkscape:zoom="1.4035803"
     inkscape:cx="92.999992"
     inkscape:cy="-33.292194"
     inkscape:window-x="0"
     inkscape:window-y="27"
     inkscape:window-maximized="0"
     inkscape:current-layer="svg8" />
  <defs
     id="defs2" />
  <metadata
     id="metadata5">
    <rdf:RDF>
      <cc:Work
         rdf:about="">
        <dc:format>image/svg+xml</dc:format>
        <dc:type
           rdf:resource="http://purl.org/dc/dcmitype/StillImage" />
        <dc:title></dc:title>
      </cc:Work>
    </rdf:RDF>
  </metadata>
  <g
     transform="matrix(0.30199893,0,0,0.30199893,17.390507,-37.664781)"
     id="layer1"
     style="fill:#b3b3b3">
    <g
       transform="translate(72.854916,-1.8900717)"
       style="fill:#b3b3b3"
       id="g21">
      <path
         style="fill:#b3b3b3;stroke-width:0.26458335"
         d="m -89.612439,157.10159 c -0.06764,-0.93478 -0.18179,-1.13873 -0.676672,-1.20903 -0.651439,-0.0925 -0.829808,-0.57691 -0.212437,-0.57691 0.210579,0 0.931172,-0.29154 1.601317,-0.64786 1.807514,-0.96106 2.053436,-0.7518 1.93744,1.74242 -0.09987,2.14735 -0.217466,3.72546 -0.217466,5.5947 v 2.2378 l 1.239364,0.1397 c 0.681651,0.0768 1.385125,0.0838 1.563277,0.0154 0.31151,-0.11953 0.720169,-0.95787 1.00937,-2.07064 0.07564,-0.29105 0.07753,0.48286 0.0042,1.71979 -0.127629,2.15287 -0.369228,4.07608 -0.762558,5.02567 -0.771023,-0.0169 -2.455666,-0.65367 -3.972036,-1.07608 -0.569988,-0.15885 -1.765215,0.0499 -2.049845,0.013 0,0 0.141748,-0.47891 0.181962,-0.85366 0.368433,-3.43337 0.402207,-7.0016 0.354071,-10.05418 z m -6.563371,-0.61211 c 0.03382,-2.26137 -0.140505,-4.5861 -0.86038,-6.7301 -0.479579,-1.42833 -0.912012,-3.68461 -2.248755,-3.92098 -0.327421,-0.0465 -0.593277,-0.16556 -0.590793,-0.26458 0.0049,-0.19563 2.790039,-1.37539 3.433508,-1.45441 0.350499,-0.043 0.800643,1.001 1.519103,3.52333 0.194006,0.6811 1.166789,-1.54432 1.077579,-2.46517 -0.0621,-0.64107 -0.22371,-0.86231 -0.676897,-0.92667 -0.904065,-0.1284 -0.711096,-0.57691 0.248211,-0.57691 1.886868,0 3.685211,2.16269 3.145407,3.76001 -0.476734,1.41069 -1.05812,2.44238 -1.666875,3.80873 -0.520831,1.169 -1.008652,3.81535 -1.207021,5.35215 -1.317561,1.1693 -1.844539,2.36496 -2.543908,2.23621 -0.188946,-0.0348 0.359004,-1.55143 0.370821,-2.34161 z m -14.0232,-20.0037 c 0,-0.74816 -0.12686,-1.07145 -0.46302,-1.17989 -1.17601,-0.37938 -1.18612,-0.45461 -0.0888,-0.66049 0.64239,-0.12052 1.62883,-0.5241 2.19208,-0.89684 0.56326,-0.37275 1.12119,-0.61772 1.23985,-0.54438 0.11865,0.0733 0.28997,1.01152 0.3807,2.08486 0.0907,1.07333 0.2737,2.23817 0.4066,2.58852 0.22637,0.59678 0.25452,0.57017 0.44565,-0.42132 0.11221,-0.58208 0.27447,-1.71317 0.36058,-2.51354 l 0.15656,-1.45521 1.19063,-0.15785 c 0.65484,-0.0868 1.41965,-0.25632 1.69958,-0.37667 0.43079,-0.1852 0.47635,-0.14064 0.2967,0.29015 -0.11674,0.27993 -0.32555,0.75429 -0.33481,1.07 -0.0355,1.20977 0.77072,9.32631 1.49948,9.62541 0.10877,0 0.32696,-0.26789 0.48487,-0.59531 0.15791,-0.32742 0.29517,-0.44174 0.30502,-0.25404 0.0293,0.55819 -0.92586,2.22988 -1.92144,3.3629 -0.86892,0.98886 -0.95948,1.02954 -1.37973,0.61966 -0.33901,-0.33064 -0.49206,-1.11252 -0.6215,-3.175 -0.14673,-2.33801 -0.20294,-2.58446 -0.38612,-1.69302 -0.22747,1.107 -1.44243,4.36452 -1.76433,4.73048 -0.10524,0.11965 -0.52479,-0.71379 -0.93232,-1.85208 -1.32927,-3.71281 -1.25326,-3.67318 -1.47985,-0.77163 -0.22279,2.85277 -0.4604,3.38028 -1.2894,2.86256 -0.70145,-0.43805 -1.31824,-0.40762 -1.87064,0.0923 -0.4332,0.39203 -0.44538,0.3508 -0.20825,-0.70458 0.13852,-0.61654 0.55883,-1.91872 0.75476,-2.93575 0.46454,-2.41131 1.28321,-5.35302 1.32715,-7.13924 z m -13.59813,13.67045 c -1.60041,1.84611 -0.99385,5.85694 1.43165,7.18854 -1.30347,0.16986 -2.73588,-0.8008 -3.37313,-1.92831 -0.99097,-1.75335 -0.84984,-4.28461 0.13662,-6.0405 1.00189,-1.78335 3.12231,-3.26676 5.16736,-3.30988 2.33285,-0.0492 5.07238,1.40445 6.04846,3.52386 1.2655,2.74785 0.6796,6.9699 -1.62565,8.92898 -2.65426,2.25568 -7.71467,2.34811 -10.4481,0.18906 -4.62962,-3.65679 -4.21264,-8.74533 -1.65717,-13.22514 2.80877,-4.92386 10.95499,-7.2681 11.03897,-12.93613 0.01,-0.67242 -0.59109,-1.56656 -1.26356,-1.57279 -1.56464,-0.0145 -2.42092,2.15362 -3.00729,3.60431 -0.52999,1.31121 -0.49351,2.82936 -0.30903,4.23155 l 3.08693,23.46288 c 0.31958,2.42907 -0.84732,3.72183 -2.2097,4.87278 -1.1407,0.96367 -2.88084,1.496 -4.33168,1.14253 -1.8926,-0.4611 -3.71578,-2.07453 -4.33187,-3.9225 -0.34065,-1.0218 -0.17945,-2.44449 0.61456,-3.17227 0.73607,-0.67468 2.13931,-0.85211 2.97917,-0.31209 0.8802,0.56596 1.28758,1.97084 0.99813,2.97647 -0.23971,0.83285 -2.01061,1.64843 -2.01061,1.64843 0.2939,1.15648 2.2417,1.96758 3.50308,1.67651 2.00766,-0.46326 4.17696,-2.72569 3.84266,-4.84165 l -3.58745,-22.70661 c -0.22864,-1.44714 -0.57454,-2.9117 -0.45375,-4.37181 0.15167,-1.83349 0.48714,-3.76262 1.46413,-5.32152 0.62407,-0.99576 1.478,-2.38858 2.65136,-2.32363 1.30931,0.0725 2.12094,1.70558 2.65432,2.90352 0.70114,1.57472 0.83365,3.45535 0.50183,5.14686 -0.33693,1.71755 -1.36787,3.26758 -2.44619,4.64625 -1.34893,1.72467 -3.44952,2.73345 -4.90398,4.37011 -1.29579,1.45811 -2.87281,2.90551 -3.35315,4.79613 -0.60305,2.37361 -0.86117,5.52462 0.82515,7.30057 1.88203,1.98206 5.90575,2.98529 8.08927,1.34126 2.03934,-1.53548 2.5297,-5.65527 0.88437,-7.60707 -1.42128,-1.68601 -5.16126,-2.0249 -6.60571,-0.3587 z"
         id="path4529"
         inkscape:connector-curvature="0" />
      <path
         style="fill:#b3b3b3;stroke:none;stroke-width:0.26458332px;stroke-linecap:butt;stroke-linejoin:miter;stroke-opacity:1"
         d="m -130.43958,134.81042 49.212497,-8.20209 v 1.5875 l -49.212497,8.20209 z"
         id="path814"
         inkscape:connector-curvature="0" />
      <path
         id="path816"
         d="m -130.43958,142.0105 49.212497,-4.20225 v 1.5875 l -49.212497,4.20225 z"
         style="fill:#b3b3b3;stroke:none;stroke-width:0.26458332px;stroke-linecap:butt;stroke-linejoin:miter;stroke-opacity:1"
         inkscape:connector-curvature="0" />
      <path
         style="fill:#b3b3b3;stroke:none;stroke-width:0.26458332px;stroke-linecap:butt;stroke-linejoin:miter;stroke-opacity:1"
         d="m -130.43958,148.1105 49.212497,0.39775 v 1.5875 L -130.43958,149.698 Z"
         id="path818"
         inkscape:connector-curvature="0" />
      <path
         id="path820"
         d="m -130.43958,154.11075 49.212497,4.7975 v 1.5875 l -49.212497,-4.7975 z"
         style="fill:#b3b3b3;stroke:none;stroke-width:0.26458332px;stroke-linecap:butt;stroke-linejoin:miter;stroke-opacity:1"
         inkscape:connector-curvature="0" />
      <path
         style="fill:#b3b3b3;stroke:none;stroke-width:0.26458332px;stroke-linecap:butt;stroke-linejoin:miter;stroke-opacity:1"
         d="m -130.43958,160.211 49.212497,9.29725 v 1.5875 l -49.212497,-9.29725 z"
         id="path822"
         inkscape:connector-curvature="0" />
    </g>
  </g>
</svg>
