<?xml version="1.0" encoding="UTF-8" standalone="no"?>
<!-- Created with Inkscape (http://www.inkscape.org/) -->

<svg
   xmlns:dc="http://purl.org/dc/elements/1.1/"
   xmlns:cc="http://creativecommons.org/ns#"
   xmlns:rdf="http://www.w3.org/1999/02/22-rdf-syntax-ns#"
   xmlns:svg="http://www.w3.org/2000/svg"
   xmlns="http://www.w3.org/2000/svg"
   xmlns:sodipodi="http://sodipodi.sourceforge.net/DTD/sodipodi-0.dtd"
   xmlns:inkscape="http://www.inkscape.org/namespaces/inkscape"
   width="100"
   height="150"
   viewBox="0 0 26.458333 39.687501"
   version="1.1"
   id="svg8"
   inkscape:version="0.92.2 2405546, 2018-03-11"
   sodipodi:docname="avatar.svg">
  <defs
     id="defs2">
    <mask
       maskUnits="userSpaceOnUse"
       id="mask4598">
      <path
         sodipodi:nodetypes="caaacaaac"
         inkscape:connector-curvature="0"
         id="path4600"
         d="m 39.687499,114.70208 c 0,0 0.917866,-4.34127 2.645834,-5.29167 1.158211,-0.63703 2.623288,0.40081 3.945125,0.4016 1.337508,8e-4 2.820818,-1.04688 3.992375,-0.4016 1.727401,0.95143 2.645833,5.29167 2.645833,5.29167 0,0 4.011668,-0.0709 3.96875,1.32291 -0.112107,3.64078 -6.917208,2.80918 -10.559709,2.8112 -3.657721,0.002 -10.492359,0.84473 -10.606958,-2.8112 -0.04369,-1.39379 3.96875,-1.32291 3.96875,-1.32291 z"
         style="fill:#ffffff;stroke:none;stroke-width:0.26458332px;stroke-linecap:butt;stroke-linejoin:miter;stroke-opacity:1" />
    </mask>
  </defs>
  <sodipodi:namedview
     id="base"
     pagecolor="#ffffff"
     bordercolor="#666666"
     borderopacity="1.0"
     inkscape:pageopacity="0.0"
     inkscape:pageshadow="2"
     inkscape:zoom="5.6568542"
     inkscape:cx="6.6959084"
     inkscape:cy="74.401685"
     inkscape:document-units="px"
     inkscape:current-layer="layer1"
     showgrid="false"
     inkscape:window-width="1920"
     inkscape:window-height="1016"
     inkscape:window-x="0"
     inkscape:window-y="27"
     inkscape:window-maximized="1"
     units="px"
     fit-margin-top="0"
     fit-margin-left="0"
     fit-margin-right="0"
     fit-margin-bottom="0">
    <inkscape:grid
       type="xygrid"
       id="grid3701"
       originx="-35.586122"
       originy="-167.87813" />
  </sodipodi:namedview>
  <metadata
     id="metadata5">
    <rdf:RDF>
      <cc:Work
         rdf:about="">
        <dc:format>image/svg+xml</dc:format>
        <dc:type
           rdf:resource="http://purl.org/dc/dcmitype/StillImage" />
        <dc:title />
      </cc:Work>
    </rdf:RDF>
  </metadata>
  <g
     inkscape:label="Ebene 1"
     inkscape:groupmode="layer"
     id="layer1"
     transform="translate(-35.586122,-89.434372)">
    <g
       id="g35">
      <path
         sodipodi:nodetypes="aaaaa"
         inkscape:connector-curvature="0"
         id="path3763"
         d="m 48.815294,118.64363 c -3.444103,0 -6.488969,-4.49569 -6.614583,-7.9375 -0.138406,-3.79233 2.83644,-9.2584 6.631288,-9.25387 3.788372,0.005 6.740571,5.46818 6.597878,9.25387 -0.129726,3.44166 -3.17048,7.9375 -6.614583,7.9375 z"
         style="fill:#f2d9d1;fill-opacity:1;stroke:#000000;stroke-width:0.26458332px;stroke-linecap:butt;stroke-linejoin:miter;stroke-opacity:1" />
      <ellipse
         ry="2.9758911"
         rx="7.5244288"
         cy="108.12578"
         cx="48.815472"
         id="path4570"
         style="opacity:0.28999999;fill:#000000;fill-opacity:1;stroke:none;stroke-width:0.24916948;stroke-linecap:round;stroke-miterlimit:4;stroke-dasharray:none;stroke-opacity:1" />
      <path
         sodipodi:nodetypes="caaacaaac"
         inkscape:connector-curvature="0"
         id="path3699"
         d="m 42.200711,105.41447 c 0,0 0.917865,-4.34127 2.645833,-5.29167 1.158211,-0.637034 2.623288,0.40081 3.945126,0.4016 1.337508,8e-4 2.820818,-1.046884 3.992374,-0.4016 1.727402,0.95143 2.645834,5.29167 2.645834,5.29167 0,0 4.011668,-0.0709 3.96875,1.32291 -0.112106,3.64078 -6.91721,2.80918 -10.55971,2.8112 -3.657722,0.002 -10.492358,0.84473 -10.606957,-2.8112 -0.04369,-1.39379 3.96875,-1.32291 3.96875,-1.32291 z"
         style="fill:#252525;fill-opacity:1;stroke:none;stroke-width:0.26458332px;stroke-linecap:butt;stroke-linejoin:miter;stroke-opacity:1" />
      <g
         mask="url(#mask4598)"
         transform="translate(2.5132118,-9.2876173)"
         id="g4578">
        <path
           style="fill:#0023bc;fill-opacity:1;stroke:none;stroke-width:0.26458332px;stroke-linecap:butt;stroke-linejoin:miter;stroke-opacity:1"
           d="m 39.6875,113.11458 c 0,0 4.402678,0.52917 6.614583,0.52917 2.211906,0 6.614583,-0.52917 6.614583,-0.52917 0,0.52917 0,1.05833 0,1.5875 0,0 -4.402677,0.52917 -6.614583,0.52917 -2.211905,0 -6.614583,-0.52917 -6.614583,-0.52917 0,-0.52917 0,-1.05833 0,-1.5875 z"
           id="path4572"
           inkscape:connector-curvature="0"
           sodipodi:nodetypes="csccscc" />
        <path
           style="fill:#ff0000;stroke:none;stroke-width:0.26458332px;stroke-linecap:butt;stroke-linejoin:miter;stroke-opacity:1"
           d="m 39.6875,114.17292 v -0.52917 c 0,0 4.402678,0.52917 6.614583,0.52917 2.211905,0 6.614583,-0.52917 6.614583,-0.52917 v 0.52917 c 0,0 -4.402678,0.52916 -6.614583,0.52916 -2.211905,0 -6.614583,-0.52916 -6.614583,-0.52916 z"
           id="path4574"
           inkscape:connector-curvature="0"
           sodipodi:nodetypes="ccsccsc" />
      </g>
      <path
         sodipodi:nodetypes="csc"
         inkscape:connector-curvature="0"
         id="path4580"
         d="m 42.200711,105.41447 c 0,0 4.402678,0.52916 6.614583,0.52916 2.211905,0 6.614583,-0.52916 6.614583,-0.52916"
         style="fill:none;stroke:#000000;stroke-width:0.26458332px;stroke-linecap:butt;stroke-linejoin:miter;stroke-opacity:1" />
      <path
         style="fill:none;stroke:#000000;stroke-width:0.26458332px;stroke-linecap:butt;stroke-linejoin:miter;stroke-opacity:1"
         d="m 42.200711,105.41447 c 0,0 0.917865,-4.34127 2.645833,-5.29167 1.158211,-0.637034 2.623288,0.40081 3.945126,0.4016 1.337508,8e-4 2.820818,-1.046884 3.992374,-0.4016 1.727402,0.95143 2.645834,5.29167 2.645834,5.29167 0,0 4.011668,-0.0709 3.96875,1.32291 -0.112106,3.64078 -6.91721,2.80918 -10.55971,2.8112 -3.657722,0.002 -10.492358,0.84473 -10.606957,-2.8112 -0.04369,-1.39379 3.96875,-1.32291 3.96875,-1.32291 z"
         id="path4582"
         inkscape:connector-curvature="0"
         sodipodi:nodetypes="caaacaaac" />
    </g>
  </g>
</svg>
